<?xml version="1.0" standalone="no"?><!DOCTYPE svg PUBLIC "-//W3C//DTD SVG 1.1//EN" "http://www.w3.org/Graphics/SVG/1.1/DTD/svg11.dtd"><svg height="1024" node-id="1" sillyvg="true" template-height="1024" template-width="1024" version="1.1" viewBox="0 0 1024 1024" width="1024" xmlns="http://www.w3.org/2000/svg" xmlns:xlink="http://www.w3.org/1999/xlink"><defs node-id="54"><clipPath id="clip-花草" node-id="3"><path d="M 0.00 0.00 L 1024.00 0.00 L 1024.00 1024.00 L 0.00 1024.00 Z" fill="#000000" fill-rule="nonzero" node-id="57" stroke="none" target-height="1024" target-width="1024" target-x="0" target-y="0"></path></clipPath></defs><g clip-path="url(#clip-花草)" id="花草" node-id="5"><path d="M 0.00 0.00 L 1024.00 0.00 L 1024.00 1024.00 L 0.00 1024.00 Z" fill="#ffffff" fill-rule="nonzero" node-id="62" stroke="none" target-height="1024" target-width="1024" target-x="0" target-y="0"></path><path d="M 772.63 562.90 L 771.74 567.33 L 770.48 572.16 L 768.04 579.84 L 764.84 588.29 L 759.98 599.23 L 756.26 606.64 L 751.64 614.97 L 746.01 624.30 L 740.03 633.36 L 732.93 643.19 L 724.57 653.87 L 718.15 661.53 L 710.96 669.55 L 702.97 677.95 L 694.13 686.74 L 685.28 695.04 L 675.53 703.63 L 664.83 712.52 L 653.13 721.73 L 641.47 730.37 L 628.78 739.23 L 614.98 748.32 L 600.02 757.63" fill="none" group-id="1,7" id="路径_107" node-id="8" stroke="#368679" stroke-linecap="butt" stroke-width="4" target-height="194.72931" target-width="172.61719" target-x="600.0156" target-y="562.89746"></path><path d="M 718.70 580.01 L 719.23 583.46 L 720.44 592.60 L 721.79 605.66 L 722.34 613.02 L 722.73 620.84 L 722.88 628.71 L 722.72 636.36 L 722.17 643.83 L 721.20 650.43 L 720.22 654.69 L 719.02 658.27 L 717.64 661.26" fill="none" group-id="1,8" id="路径_108" node-id="9" stroke="#368679" stroke-linecap="butt" stroke-width="4" target-height="81.25" target-width="5.239746" target-x="717.6372" target-y="580.014"></path><path d="M 808.47 602.36 L 805.24 602.52 L 796.85 603.16 L 785.28 604.54 L 778.94 605.57 L 772.48 606.90 L 766.15 608.55 L 760.41 610.49 L 756.75 612.07 L 753.65 613.77 L 751.05 615.57" fill="none" group-id="1,9" id="路径_109" node-id="10" stroke="#368679" stroke-linecap="butt" stroke-width="4" target-height="13.210999" target-width="57.418457" target-x="751.04834" target-y="602.36365"></path><path d="M 793.10 665.35 L 789.19 665.67 L 778.54 666.85 L 771.47 667.84 L 762.78 669.25 L 753.68 670.98 L 743.53 673.21 L 733.20 675.85 L 722.41 679.06 L 711.67 682.80 L 701.04 687.16 L 694.11 690.43 L 687.45 693.99 L 681.05 697.85" fill="none" group-id="1,10" id="路径_110" node-id="11" stroke="#368679" stroke-linecap="butt" stroke-width="4" target-height="32.496704" target-width="112.04199" target-x="681.0547" target-y="665.34827"></path><path d="M 651.61 721.48 L 652.38 718.29 L 654.27 709.69 L 656.69 697.16 L 657.89 689.98 L 659.02 682.16 L 659.97 674.20 L 660.67 666.17 L 661.04 658.18 L 661.02 650.65 L 660.73 645.69 L 660.21 641.18 L 659.47 637.09" fill="none" group-id="1,11" id="路径_111" node-id="12" stroke="#368679" stroke-linecap="butt" stroke-width="4" target-height="84.3949" target-width="9.431641" target-x="651.6118" target-y="637.0885"></path><path d="M 753.92 731.00 L 749.26 730.65 L 736.33 730.16 L 727.63 730.12 L 716.75 730.37 L 705.24 730.99 L 692.11 732.15 L 683.21 733.21 L 673.85 734.60 L 664.02 736.33 L 654.26 738.38 L 644.28 740.86 L 634.09 743.78 L 624.02 747.10 L 613.96 750.95 L 603.91 755.33" fill="none" group-id="1,12" id="路径_112" node-id="13" stroke="#368679" stroke-linecap="butt" stroke-width="4" target-height="25.20575" target-width="150.01123" target-x="603.9121" target-y="730.12006"></path><path d="M 723.34 578.57 L 723.30 580.33 L 722.87 581.89 L 722.02 583.30 L 720.85 584.46 L 719.45 585.26 L 717.75 585.72 L 715.99 585.69 L 714.43 585.25 L 713.01 584.41 L 711.85 583.24 L 711.05 581.83 L 710.60 580.13 L 710.63 578.37 L 711.06 576.81 L 711.91 575.40 L 713.08 574.24 L 714.48 573.44 L 716.18 572.98 L 717.94 573.01 L 719.50 573.45 L 720.92 574.29 L 722.08 575.46 L 722.88 576.87 L 723.34 578.57 Z" fill="#b9539f" fill-rule="nonzero" group-id="1,13" id="椭圆_3" node-id="14" stroke="none" target-height="12.740356" target-width="12.740295" target-x="710.59515" target-y="572.9802"></path><path d="M 779.10 558.79 L 779.07 560.55 L 778.63 562.11 L 777.79 563.52 L 776.62 564.68 L 775.22 565.48 L 773.52 565.94 L 771.76 565.91 L 770.20 565.47 L 768.78 564.63 L 767.62 563.46 L 766.82 562.05 L 766.36 560.35 L 766.40 558.59 L 766.83 557.03 L 767.68 555.62 L 768.84 554.46 L 770.25 553.66 L 771.95 553.20 L 773.71 553.23 L 775.27 553.67 L 776.68 554.51 L 777.85 555.68 L 778.65 557.09 L 779.10 558.79 Z" fill="#b9539f" fill-rule="nonzero" group-id="1,14" id="椭圆_4" node-id="15" stroke="none" target-height="12.740356" target-width="12.740295" target-x="766.3632" target-y="553.2004"></path><path d="M 817.37 602.29 L 817.34 603.89 L 816.94 605.31 L 816.17 606.60 L 815.11 607.65 L 813.83 608.38 L 812.29 608.80 L 810.69 608.77 L 809.27 608.37 L 807.98 607.60 L 806.93 606.54 L 806.20 605.26 L 805.78 603.72 L 805.81 602.12 L 806.21 600.70 L 806.98 599.41 L 808.04 598.36 L 809.32 597.63 L 810.86 597.21 L 812.46 597.24 L 813.88 597.64 L 815.17 598.41 L 816.22 599.47 L 816.95 600.75 L 817.37 602.29 Z" fill="#b9539f" fill-rule="nonzero" group-id="1,15" id="椭圆_5" node-id="16" stroke="none" target-height="11.583008" target-width="11.583008" target-x="805.7827" target-y="597.21326"></path><path d="M 805.25 666.39 L 805.22 668.36 L 804.71 670.16 L 803.76 671.77 L 802.43 673.08 L 800.80 674.01 L 798.90 674.51 L 796.93 674.49 L 795.12 673.97 L 793.52 673.02 L 792.21 671.70 L 791.27 670.07 L 790.77 668.16 L 790.79 666.19 L 791.31 664.39 L 792.26 662.79 L 793.59 661.47 L 795.21 660.54 L 797.12 660.04 L 799.09 660.06 L 800.89 660.58 L 802.50 661.53 L 803.81 662.85 L 804.75 664.48 L 805.25 666.39 Z" fill="#b9539f" fill-rule="nonzero" group-id="1,16" id="椭圆_6" node-id="17" stroke="none" target-height="14.477295" target-width="14.477295" target-x="790.77" target-y="660.03644"></path><path d="M 765.56 730.93 L 765.53 732.82 L 765.04 734.55 L 764.13 736.09 L 762.85 737.35 L 761.29 738.25 L 759.46 738.73 L 757.57 738.71 L 755.84 738.21 L 754.30 737.30 L 753.04 736.02 L 752.14 734.46 L 751.66 732.63 L 751.68 730.74 L 752.18 729.01 L 753.09 727.47 L 754.36 726.21 L 755.92 725.31 L 757.75 724.83 L 759.65 724.85 L 761.38 725.35 L 762.92 726.26 L 764.18 727.54 L 765.08 729.10 L 765.56 730.93 Z" fill="#b9539f" fill-rule="nonzero" group-id="1,17" id="椭圆_7" node-id="18" stroke="none" target-height="13.899597" target-width="13.899597" target-x="751.6583" target-y="724.8298"></path><path d="M 496.81 746.39 L 499.50 739.49 L 502.26 731.72 L 506.42 718.96 L 510.70 704.45 L 515.83 685.08 L 519.09 671.51 L 522.49 655.92 L 526.02 638.11 L 529.19 620.25 L 532.27 600.37 L 535.25 578.33 L 537.75 556.26 L 539.94 532.20 L 541.79 506.00 L 540.85 500.11 L 539.04 490.62 L 536.65 480.10 L 533.10 466.73 L 530.36 457.58 L 526.99 447.51 L 522.95 436.46 L 518.57 425.59 L 513.46 414.09 L 507.54 401.95 L 501.19 390.07 L 493.97 377.86 L 485.84 365.32 L 479.43 356.21 L 472.46 347.07 L 464.93 337.90 L 456.81 328.70 L 466.34 337.89 L 475.12 347.14 L 483.18 356.47 L 490.85 366.14 L 497.82 375.63 L 504.12 384.95 L 510.10 394.50 L 515.42 403.61 L 520.12 412.28 L 526.57 425.26 L 531.67 436.63 L 536.08 447.49 L 539.27 456.13 L 541.89 463.98 L 543.41 468.95 L 543.90 443.60 L 543.86 416.63 L 543.26 387.95 L 542.44 366.64 L 541.23 344.43 L 539.62 321.29 L 537.58 297.19 L 535.21 273.50 L 532.35 248.90 L 528.98 223.38 L 525.08 196.90 L 520.84 170.86 L 516.01 143.93 L 510.56 116.07 L 504.49 87.26 L 512.08 118.29 L 518.85 148.28 L 524.82 177.26 L 530.03 205.27 L 534.80 233.80 L 538.89 261.26 L 542.33 287.69 L 545.14 313.13 L 547.54 339.03 L 549.41 363.83 L 550.77 387.58 L 551.64 410.30 L 552.13 433.45 L 552.23 455.46 L 551.96 476.38 L 551.35 496.25 L 550.01 523.01 L 548.25 547.71 L 546.10 570.45 L 543.47 593.18 L 540.66 613.77 L 537.72 632.36 L 534.39 650.90 L 531.15 667.20 L 528.02 681.44 L 523.04 701.81 L 518.83 717.16 L 514.73 730.70 L 511.98 738.99 L 509.29 746.38 Z" fill="#4d9786" fill-rule="nonzero" group-id="2,18" id="联合_5" node-id="20" stroke="none" target-height="659.127" target-width="95.421875" target-x="456.80713" target-y="87.262"></path><path d="M 529.74 229.75 L 529.78 226.70 L 530.07 223.37 L 530.90 218.14 L 532.25 212.40 L 534.62 205.01 L 536.58 200.02 L 539.16 194.44 L 542.45 188.22 L 546.06 182.22 L 550.52 175.72 L 555.91 168.68 L 561.66 161.98 L 568.49 154.87 L 576.51 147.32 L 574.21 158.94 L 571.67 169.03 L 568.92 177.74 L 565.65 186.33 L 562.38 193.64 L 559.10 199.81 L 555.42 205.81 L 551.95 210.76 L 548.67 214.80 L 545.11 218.64 L 541.98 221.65 L 539.23 223.94 L 535.11 226.89 L 532.38 228.51 L 529.74 229.75 Z" fill="#267a3e" fill-rule="nonzero" group-id="2,19" id="路径_76" node-id="21" stroke="none" target-height="82.43001" target-width="46.770996" target-x="529.7412" target-y="147.321"></path><path d="M 546.23 323.66 L 543.69 321.96 L 541.06 319.91 L 537.12 316.36 L 533.04 312.09 L 528.13 306.08 L 525.02 301.72 L 521.74 296.51 L 518.31 290.36 L 515.25 284.06 L 512.22 276.78 L 509.26 268.42 L 506.77 259.94 L 504.52 250.34 L 502.56 239.49 L 511.06 247.75 L 518.13 255.39 L 523.95 262.44 L 529.37 269.86 L 533.72 276.59 L 537.12 282.71 L 540.14 289.06 L 542.40 294.68 L 544.00 299.62 L 545.29 304.71 L 546.10 308.98 L 546.53 312.53 L 546.76 317.59 L 546.63 320.76 L 546.23 323.66 Z" fill="#267a3e" fill-rule="nonzero" group-id="2,20" id="路径_77" node-id="22" stroke="none" target-height="84.16504" target-width="44.19922" target-x="502.5647" target-y="239.49072"></path><path d="M 525.99 430.86 L 523.39 431.38 L 520.52 431.75 L 515.95 432.03 L 510.84 431.99 L 504.19 431.44 L 499.62 430.78 L 494.45 429.73 L 488.63 428.23 L 482.92 426.44 L 476.66 424.07 L 469.79 421.05 L 463.13 417.68 L 455.94 413.53 L 448.20 408.51 L 458.44 408.25 L 467.43 408.46 L 475.27 409.07 L 483.11 410.12 L 489.86 411.41 L 495.64 412.90 L 501.36 414.75 L 506.14 416.63 L 510.11 418.50 L 515.61 421.64 L 519.46 424.36 L 522.66 427.11 L 524.49 428.99 L 525.99 430.86 Z" fill="#267a3e" fill-rule="nonzero" group-id="2,21" id="路径_81" node-id="23" stroke="none" target-height="23.783691" target-width="77.78479" target-x="448.20093" target-y="408.24854"></path><path d="M 506.61 391.02 L 505.11 388.84 L 503.65 386.35 L 501.60 382.24 L 499.65 377.53 L 497.55 371.19 L 496.37 366.72 L 495.32 361.56 L 494.41 355.61 L 493.83 349.66 L 493.57 342.96 L 493.66 335.46 L 494.15 328.01 L 495.16 319.77 L 496.75 310.69 L 501.00 320.01 L 504.32 328.36 L 506.83 335.82 L 508.93 343.45 L 510.38 350.17 L 511.27 356.07 L 511.80 362.05 L 511.95 367.19 L 511.77 371.58 L 511.03 377.87 L 510.03 382.47 L 508.76 386.50 L 507.75 388.91 L 506.61 391.02 Z" fill="#267a3e" fill-rule="nonzero" group-id="2,22" id="路径_82" node-id="24" stroke="none" target-height="80.33911" target-width="18.382813" target-x="493.56543" target-y="310.6858"></path><path d="M 545.81 445.20 L 547.83 441.78 L 550.29 438.21 L 554.54 432.82 L 557.75 429.16 L 561.82 424.99 L 566.89 420.24 L 572.15 415.78 L 578.43 411.03 L 585.83 405.98 L 593.45 401.35 L 602.24 396.67 L 612.32 391.96 L 619.91 388.83 L 628.23 385.80 L 637.35 382.89 L 647.32 380.11 L 638.86 390.19 L 630.94 398.89 L 623.54 406.32 L 615.77 413.43 L 608.59 419.43 L 601.97 424.41 L 595.07 429.07 L 588.82 432.85 L 583.15 435.86 L 577.29 438.58 L 572.13 440.66 L 567.60 442.18 L 560.92 443.95 L 555.84 444.85 L 551.26 445.30 L 548.41 445.36 L 545.81 445.20 Z" fill="#267a3e" fill-rule="nonzero" group-id="2,23" id="路径_78" node-id="25" stroke="none" target-height="65.246826" target-width="101.51416" target-x="545.8096" target-y="380.11304"></path><path d="M 545.15 527.87 L 547.75 524.73 L 550.81 521.50 L 555.97 516.71 L 559.80 513.51 L 564.58 509.92 L 570.45 505.90 L 576.48 502.20 L 583.57 498.37 L 591.84 494.40 L 600.26 490.90 L 609.87 487.52 L 620.77 484.30 L 628.90 482.30 L 637.77 480.52 L 647.41 478.98 L 657.88 477.70 L 647.71 486.58 L 638.32 494.15 L 629.65 500.51 L 620.67 506.51 L 612.47 511.46 L 605.00 515.47 L 597.29 519.12 L 590.38 521.98 L 584.20 524.15 L 577.87 526.00 L 572.34 527.31 L 567.53 528.15 L 560.54 528.91 L 555.29 529.05 L 550.61 528.81 L 547.73 528.43 L 545.15 527.87 Z" fill="#267a3e" fill-rule="nonzero" group-id="2,24" id="路径_79" node-id="26" stroke="none" target-height="51.34961" target-width="112.726074" target-x="545.15283" target-y="477.7019"></path><path d="M 540.49 589.21 L 537.10 587.40 L 533.52 585.17 L 528.03 581.25 L 522.20 576.47 L 514.96 569.64 L 510.22 564.64 L 505.09 558.63 L 499.53 551.49 L 494.36 544.12 L 488.98 535.56 L 483.41 525.68 L 479.62 518.24 L 475.82 510.04 L 472.03 501.02 L 468.26 491.12 L 473.96 493.43 L 479.35 496.11 L 484.46 499.16 L 489.29 502.58 L 495.39 507.64 L 501.03 513.09 L 506.23 518.94 L 511.06 525.12 L 515.44 531.40 L 519.40 537.77 L 523.07 544.32 L 526.29 550.61 L 529.09 556.63 L 532.84 565.59 L 535.63 573.11 L 537.93 580.09 L 539.32 584.78 L 540.49 589.21 Z" fill="#267a3e" fill-rule="nonzero" group-id="2,25" id="路径_80" node-id="27" stroke="none" target-height="98.08838" target-width="72.22339" target-x="468.26416" target-y="491.12207"></path><path d="M 486.99 114.31 L 487.64 105.66 L 488.25 100.92 L 489.11 96.39 L 489.90 93.43 L 490.81 90.96 L 491.82 88.92 L 493.15 87.15 L 494.59 86.10 L 496.20 85.63 L 497.54 85.78 L 498.72 86.36 L 499.82 87.42 L 501.12 89.53 L 502.28 92.53 L 503.15 95.83 L 503.88 99.60 L 504.89 107.31 L 505.60 114.31 L 505.75 117.77 L 505.51 120.67 L 504.95 123.10 L 504.01 125.40 L 502.85 127.24 L 501.48 128.67 L 499.86 129.80 L 498.11 130.53 L 496.20 130.89 L 495.64 130.91 L 493.87 130.66 L 492.28 129.96 L 490.83 128.77 L 489.64 127.28 L 488.62 125.36 L 487.78 122.95 L 487.26 120.45 L 486.98 117.59 L 486.99 114.31 Z M 512.27 113.18 L 508.51 105.36 L 506.67 100.95 L 505.15 96.60 L 504.34 93.65 L 503.90 91.05 L 503.76 88.77 L 504.02 86.58 L 504.74 84.95 L 505.91 83.74 L 507.14 83.20 L 508.45 83.11 L 509.93 83.48 L 512.12 84.66 L 514.62 86.67 L 517.03 89.09 L 519.54 92.00 L 524.27 98.17 L 528.38 103.88 L 530.24 106.80 L 531.48 109.43 L 532.21 111.81 L 532.55 114.28 L 532.46 116.45 L 532.00 118.37 L 531.15 120.16 L 530.01 121.67 L 528.53 122.93 L 526.79 123.79 L 524.87 124.09 L 522.80 123.78 L 520.63 122.87 L 518.30 121.22 L 516.25 119.18 L 514.24 116.54 L 512.27 113.18 Z M 462.91 122.78 L 461.34 121.74 L 460.19 120.37 L 459.41 118.64 L 459.06 116.73 L 459.08 114.52 L 459.52 111.95 L 460.31 109.45 L 461.53 106.75 L 463.22 103.83 L 468.12 96.65 L 471.01 92.86 L 474.02 89.36 L 476.18 87.19 L 478.20 85.51 L 480.10 84.25 L 482.14 83.38 L 483.91 83.19 L 485.54 83.59 L 486.62 84.39 L 487.36 85.48 L 487.78 86.95 L 487.85 89.43 L 487.36 92.60 L 486.46 95.90 L 485.20 99.53 L 482.22 106.71 L 479.33 113.13 L 477.46 116.63 L 475.53 119.24 L 473.54 121.13 L 471.24 122.60 L 469.02 123.42 L 466.83 123.67 L 464.82 123.45 L 462.91 122.78 Z M 534.01 98.40 L 526.84 93.50 L 523.05 90.61 L 519.55 87.60 L 517.38 85.44 L 515.70 83.42 L 514.43 81.52 L 513.56 79.48 L 513.38 77.71 L 513.78 76.08 L 514.58 75.00 L 515.67 74.26 L 517.14 73.84 L 519.62 73.77 L 522.79 74.26 L 526.09 75.16 L 529.72 76.42 L 536.90 79.40 L 543.32 82.29 L 546.38 83.88 L 548.77 85.54 L 550.60 87.24 L 552.12 89.21 L 553.13 91.13 L 553.69 93.03 L 553.86 95.00 L 553.62 96.88 L 552.97 98.71 L 552.24 99.91 L 551.32 100.88 L 550.22 101.63 L 548.29 102.35 L 545.93 102.61 L 543.32 102.35 L 540.31 101.55 L 537.29 100.27 L 534.01 98.39 Z M 440.69 98.45 L 439.85 96.76 L 439.53 95.00 L 439.73 93.11 L 440.38 91.28 L 441.50 89.38 L 443.17 87.37 L 445.11 85.61 L 447.51 83.88 L 450.44 82.19 L 458.26 78.42 L 462.66 76.58 L 467.02 75.06 L 469.97 74.26 L 472.57 73.81 L 474.85 73.67 L 477.04 73.94 L 478.67 74.66 L 479.88 75.82 L 480.42 77.05 L 480.51 78.37 L 480.14 79.85 L 478.96 82.03 L 476.95 84.54 L 474.52 86.94 L 471.62 89.46 L 465.45 94.18 L 459.74 98.30 L 456.69 100.23 L 453.94 101.49 L 451.19 102.25 L 448.76 102.48 L 446.40 102.26 L 444.21 101.49 L 442.28 100.20 L 440.69 98.45 Z M 546.05 75.36 L 537.39 74.71 L 532.65 74.10 L 528.12 73.24 L 525.16 72.46 L 522.69 71.55 L 520.65 70.53 L 518.88 69.21 L 517.83 67.76 L 517.36 66.15 L 517.51 64.82 L 518.09 63.63 L 519.15 62.53 L 521.26 61.23 L 524.26 60.07 L 527.56 59.20 L 531.33 58.48 L 539.04 57.47 L 546.05 56.76 L 549.50 56.61 L 552.39 56.84 L 554.83 57.41 L 557.13 58.35 L 558.97 59.50 L 560.40 60.87 L 561.53 62.50 L 562.26 64.24 L 562.62 66.15 L 562.52 67.93 L 561.99 69.53 L 561.01 70.99 L 559.69 72.23 L 557.99 73.31 L 555.81 74.23 L 553.51 74.85 L 550.87 75.26 L 547.82 75.41 L 546.04 75.36 Z M 429.09 65.85 L 429.21 63.97 L 429.81 62.29 L 430.93 60.75 L 432.41 59.49 L 434.33 58.40 L 436.78 57.50 L 439.34 56.94 L 442.28 56.64 L 445.66 56.64 L 454.32 57.30 L 459.05 57.91 L 463.58 58.76 L 466.54 59.55 L 469.01 60.46 L 471.06 61.47 L 472.83 62.80 L 473.87 64.24 L 474.34 65.85 L 474.19 67.19 L 473.62 68.38 L 472.55 69.47 L 470.44 70.77 L 467.45 71.93 L 464.14 72.81 L 460.37 73.53 L 452.66 74.54 L 445.66 75.25 L 442.73 75.41 L 439.49 75.16 L 436.83 74.58 L 434.66 73.72 L 432.89 72.61 L 431.32 71.13 L 430.19 69.54 L 429.45 67.79 L 429.09 65.85 Z M 513.92 56.71 L 513.39 55.48 L 513.29 54.17 L 513.67 52.69 L 514.84 50.50 L 516.86 48.00 L 519.28 45.59 L 522.19 43.08 L 528.36 38.35 L 534.07 34.24 L 536.98 32.38 L 539.61 31.14 L 542.00 30.41 L 544.47 30.07 L 546.63 30.16 L 548.56 30.62 L 550.35 31.47 L 551.85 32.61 L 553.12 34.09 L 553.96 35.78 L 554.28 37.54 L 554.08 39.43 L 553.43 41.26 L 552.31 43.16 L 550.64 45.16 L 548.70 46.93 L 546.30 48.66 L 543.37 50.35 L 535.64 54.07 L 531.29 55.89 L 526.98 57.41 L 522.72 58.50 L 519.19 58.87 L 517.48 58.74 L 516.06 58.36 L 514.85 57.69 L 513.92 56.71 Z M 450.49 50.25 L 447.43 48.65 L 445.03 47.00 L 443.21 45.29 L 441.68 43.33 L 440.67 41.41 L 440.11 39.51 L 439.95 37.54 L 440.19 35.66 L 440.84 33.83 L 441.88 32.25 L 443.25 31.10 L 444.99 30.33 L 446.90 29.98 L 449.10 29.99 L 451.67 30.44 L 454.17 31.23 L 456.87 32.44 L 459.79 34.14 L 466.97 39.03 L 470.76 41.93 L 474.26 44.94 L 476.43 47.10 L 478.11 49.12 L 479.37 51.02 L 480.24 53.05 L 480.43 54.83 L 480.03 56.46 L 479.25 57.53 L 478.16 58.26 L 476.83 58.66 L 475.17 58.80 L 472.61 58.58 L 469.53 57.91 L 466.38 56.94 L 463.00 55.70 L 456.39 52.90 L 450.49 50.25 Z M 463.32 28.01 L 461.47 25.09 L 460.22 22.46 L 459.49 20.08 L 459.15 17.61 L 459.24 15.44 L 459.71 13.52 L 460.55 11.73 L 461.70 10.22 L 463.17 8.96 L 464.86 8.12 L 466.62 7.80 L 468.51 8.00 L 470.34 8.65 L 472.25 9.77 L 474.25 11.44 L 476.02 13.38 L 477.75 15.78 L 479.43 18.71 L 483.20 26.53 L 485.04 30.93 L 486.56 35.29 L 487.36 38.24 L 487.81 40.84 L 487.95 43.12 L 487.69 45.31 L 486.96 46.94 L 485.80 48.15 L 484.79 48.63 L 483.69 48.80 L 482.22 48.55 L 480.58 47.86 L 478.72 46.60 L 476.10 44.27 L 473.27 41.21 L 467.95 34.41 L 463.32 28.00 Z M 506.17 48.30 L 505.08 47.50 L 504.35 46.41 L 503.93 44.94 L 503.85 42.46 L 504.35 39.29 L 505.24 35.99 L 506.50 32.36 L 509.48 25.18 L 512.37 18.76 L 513.97 15.70 L 515.62 13.31 L 517.33 11.48 L 519.29 9.95 L 521.21 8.95 L 523.11 8.39 L 525.08 8.22 L 526.96 8.46 L 528.79 9.11 L 530.37 10.15 L 531.52 11.52 L 532.29 13.25 L 532.65 15.16 L 532.63 17.37 L 532.18 19.94 L 531.39 22.44 L 530.18 25.14 L 528.48 28.06 L 524.10 34.53 L 521.52 37.98 L 518.81 41.27 L 515.96 44.28 L 513.26 46.57 L 511.33 47.79 L 509.61 48.48 L 508.05 48.72 L 507.08 48.62 L 506.16 48.30 Z M 487.11 16.57 L 486.96 13.12 L 487.19 10.22 L 487.76 7.79 L 488.70 5.49 L 489.86 3.65 L 491.22 2.22 L 492.85 1.09 L 494.59 0.36 L 496.50 0.00 L 498.39 0.12 L 500.07 0.72 L 501.60 1.84 L 502.87 3.32 L 503.96 5.24 L 504.85 7.69 L 505.42 10.25 L 505.71 13.19 L 505.71 16.57 L 505.06 25.23 L 504.45 29.97 L 503.59 34.50 L 502.81 37.46 L 501.90 39.93 L 500.88 41.97 L 499.56 43.74 L 498.11 44.79 L 496.50 45.26 L 496.21 45.27 L 494.94 45.03 L 493.79 44.38 L 492.72 43.26 L 491.46 41.10 L 490.34 38.10 L 489.49 34.81 L 488.79 31.08 L 487.80 23.47 L 487.11 16.57 Z" fill="#dea59e" fill-rule="nonzero" group-id="2,26" id="联合_6" node-id="28" stroke="none" target-height="130.909" target-width="133.53027" target-x="429.0869" target-y="0.0020000339"></path><path d="M 430.99 364.31 L 431.64 355.66 L 432.25 350.92 L 433.11 346.39 L 433.90 343.43 L 434.81 340.96 L 435.82 338.92 L 437.15 337.15 L 438.59 336.10 L 440.20 335.63 L 441.54 335.78 L 442.72 336.36 L 443.82 337.42 L 445.12 339.53 L 446.28 342.53 L 447.15 345.83 L 447.88 349.60 L 448.89 357.31 L 449.60 364.31 L 449.75 367.77 L 449.51 370.67 L 448.95 373.10 L 448.01 375.40 L 446.85 377.24 L 445.48 378.67 L 443.86 379.80 L 442.11 380.53 L 440.20 380.89 L 439.64 380.91 L 437.87 380.66 L 436.28 379.96 L 434.83 378.77 L 433.64 377.28 L 432.62 375.36 L 431.78 372.95 L 431.26 370.45 L 430.98 367.59 L 430.99 364.31 Z M 456.27 363.18 L 452.51 355.36 L 450.67 350.95 L 449.15 346.60 L 448.34 343.65 L 447.90 341.05 L 447.76 338.77 L 448.02 336.58 L 448.74 334.95 L 449.91 333.74 L 451.14 333.20 L 452.45 333.11 L 453.93 333.48 L 456.12 334.66 L 458.62 336.67 L 461.03 339.09 L 463.54 342.00 L 468.27 348.17 L 472.38 353.88 L 474.24 356.80 L 475.48 359.43 L 476.21 361.81 L 476.55 364.28 L 476.46 366.45 L 476.00 368.37 L 475.15 370.16 L 474.01 371.67 L 472.53 372.93 L 470.79 373.79 L 468.87 374.09 L 466.80 373.78 L 464.63 372.87 L 462.30 371.22 L 460.25 369.18 L 458.24 366.54 L 456.27 363.18 Z M 406.91 372.78 L 405.34 371.74 L 404.19 370.37 L 403.41 368.64 L 403.06 366.73 L 403.08 364.52 L 403.52 361.95 L 404.31 359.45 L 405.53 356.75 L 407.22 353.83 L 412.12 346.65 L 415.01 342.86 L 418.02 339.36 L 420.18 337.19 L 422.20 335.51 L 424.10 334.25 L 426.14 333.38 L 427.91 333.19 L 429.54 333.59 L 430.62 334.39 L 431.36 335.48 L 431.78 336.95 L 431.85 339.43 L 431.36 342.60 L 430.46 345.90 L 429.20 349.53 L 426.22 356.71 L 423.33 363.13 L 421.46 366.63 L 419.53 369.24 L 417.54 371.13 L 415.24 372.60 L 413.02 373.42 L 410.83 373.67 L 408.82 373.45 L 406.91 372.78 Z M 478.01 348.40 L 470.84 343.50 L 467.05 340.61 L 463.55 337.60 L 461.38 335.44 L 459.70 333.42 L 458.43 331.52 L 457.56 329.48 L 457.38 327.71 L 457.78 326.08 L 458.58 325.00 L 459.67 324.26 L 461.14 323.84 L 463.62 323.77 L 466.79 324.26 L 470.09 325.16 L 473.72 326.42 L 480.90 329.40 L 487.32 332.29 L 490.38 333.88 L 492.77 335.54 L 494.60 337.24 L 496.12 339.21 L 497.13 341.13 L 497.69 343.03 L 497.85 345.00 L 497.62 346.88 L 496.97 348.71 L 496.24 349.91 L 495.32 350.88 L 494.22 351.63 L 492.29 352.35 L 489.93 352.61 L 487.32 352.35 L 484.31 351.55 L 481.29 350.27 L 478.01 348.39 Z M 384.69 348.45 L 383.85 346.76 L 383.53 345.00 L 383.73 343.11 L 384.38 341.28 L 385.50 339.38 L 387.17 337.37 L 389.11 335.61 L 391.51 333.88 L 394.44 332.19 L 402.26 328.42 L 406.66 326.58 L 411.02 325.06 L 413.97 324.26 L 416.57 323.81 L 418.85 323.67 L 421.04 323.94 L 422.67 324.66 L 423.88 325.82 L 424.42 327.05 L 424.51 328.37 L 424.14 329.85 L 422.96 332.03 L 420.95 334.54 L 418.52 336.94 L 415.62 339.46 L 409.45 344.18 L 403.74 348.30 L 400.69 350.23 L 397.94 351.49 L 395.19 352.25 L 392.76 352.49 L 390.40 352.26 L 388.21 351.49 L 386.28 350.20 L 384.69 348.45 Z M 490.05 325.36 L 481.39 324.71 L 476.65 324.10 L 472.12 323.24 L 469.16 322.46 L 466.69 321.55 L 464.65 320.53 L 462.88 319.21 L 461.83 317.76 L 461.36 316.15 L 461.51 314.82 L 462.09 313.63 L 463.15 312.53 L 465.26 311.23 L 468.26 310.07 L 471.56 309.20 L 475.33 308.48 L 483.04 307.47 L 490.05 306.76 L 493.50 306.61 L 496.40 306.84 L 498.83 307.41 L 501.13 308.35 L 502.97 309.50 L 504.40 310.87 L 505.53 312.50 L 506.26 314.24 L 506.62 316.15 L 506.52 317.93 L 505.99 319.53 L 505.01 320.99 L 503.69 322.23 L 501.99 323.31 L 499.81 324.23 L 497.51 324.85 L 494.87 325.26 L 491.82 325.41 L 490.04 325.36 Z M 373.09 315.85 L 373.21 313.97 L 373.81 312.29 L 374.93 310.75 L 376.41 309.49 L 378.33 308.40 L 380.78 307.50 L 383.34 306.94 L 386.28 306.64 L 389.66 306.64 L 398.32 307.30 L 403.05 307.91 L 407.58 308.76 L 410.54 309.55 L 413.01 310.46 L 415.06 311.47 L 416.83 312.80 L 417.87 314.24 L 418.34 315.85 L 418.19 317.19 L 417.62 318.38 L 416.55 319.47 L 414.44 320.77 L 411.45 321.93 L 408.14 322.81 L 404.37 323.53 L 396.66 324.54 L 389.66 325.25 L 386.73 325.41 L 383.49 325.16 L 380.83 324.58 L 378.66 323.72 L 376.89 322.61 L 375.32 321.13 L 374.19 319.54 L 373.45 317.79 L 373.09 315.85 Z M 457.92 306.71 L 457.39 305.48 L 457.29 304.17 L 457.67 302.69 L 458.84 300.50 L 460.86 298.00 L 463.28 295.59 L 466.19 293.08 L 472.36 288.35 L 478.07 284.24 L 480.98 282.38 L 483.61 281.14 L 486.00 280.41 L 488.47 280.07 L 490.63 280.16 L 492.56 280.62 L 494.35 281.47 L 495.85 282.61 L 497.12 284.08 L 497.96 285.78 L 498.28 287.54 L 498.08 289.43 L 497.43 291.26 L 496.31 293.16 L 494.64 295.16 L 492.70 296.93 L 490.30 298.66 L 487.37 300.35 L 479.64 304.07 L 475.29 305.89 L 470.98 307.41 L 466.72 308.50 L 463.19 308.87 L 461.48 308.74 L 460.06 308.36 L 458.85 307.69 L 457.92 306.71 Z M 394.49 300.25 L 391.43 298.65 L 389.03 297.00 L 387.21 295.29 L 385.68 293.33 L 384.67 291.41 L 384.11 289.51 L 383.95 287.54 L 384.19 285.66 L 384.84 283.83 L 385.88 282.25 L 387.25 281.10 L 388.99 280.33 L 390.90 279.98 L 393.10 279.99 L 395.67 280.44 L 398.17 281.23 L 400.87 282.44 L 403.79 284.14 L 410.97 289.03 L 414.76 291.93 L 418.26 294.94 L 420.43 297.10 L 422.11 299.12 L 423.37 301.02 L 424.24 303.05 L 424.43 304.83 L 424.03 306.46 L 423.25 307.53 L 422.16 308.26 L 420.83 308.66 L 419.17 308.80 L 416.61 308.58 L 413.53 307.91 L 410.38 306.94 L 407.00 305.70 L 400.39 302.90 L 394.49 300.25 Z M 407.32 278.01 L 405.47 275.09 L 404.22 272.46 L 403.49 270.08 L 403.15 267.61 L 403.24 265.44 L 403.71 263.52 L 404.55 261.73 L 405.70 260.22 L 407.17 258.96 L 408.86 258.12 L 410.62 257.80 L 412.51 258.00 L 414.34 258.65 L 416.25 259.77 L 418.25 261.44 L 420.02 263.38 L 421.75 265.78 L 423.43 268.71 L 427.20 276.53 L 429.04 280.93 L 430.56 285.29 L 431.36 288.24 L 431.81 290.84 L 431.95 293.12 L 431.69 295.31 L 430.96 296.94 L 429.80 298.15 L 428.79 298.63 L 427.69 298.80 L 426.22 298.55 L 424.58 297.86 L 422.72 296.60 L 420.10 294.27 L 417.27 291.21 L 411.95 284.41 L 407.32 278.00 Z M 450.17 298.30 L 449.08 297.50 L 448.35 296.41 L 447.93 294.94 L 447.85 292.46 L 448.35 289.29 L 449.24 285.99 L 450.50 282.36 L 453.48 275.18 L 456.37 268.76 L 457.97 265.70 L 459.62 263.31 L 461.33 261.48 L 463.29 259.95 L 465.21 258.95 L 467.11 258.39 L 469.08 258.22 L 470.96 258.46 L 472.79 259.11 L 474.37 260.15 L 475.52 261.52 L 476.29 263.25 L 476.65 265.16 L 476.63 267.37 L 476.18 269.94 L 475.39 272.44 L 474.18 275.14 L 472.48 278.06 L 468.10 284.53 L 465.52 287.98 L 462.81 291.27 L 459.96 294.28 L 457.26 296.57 L 455.33 297.79 L 453.61 298.48 L 452.05 298.72 L 451.08 298.62 L 450.16 298.29 Z M 431.11 266.57 L 430.96 263.12 L 431.19 260.22 L 431.76 257.79 L 432.70 255.49 L 433.86 253.65 L 435.22 252.22 L 436.85 251.09 L 438.59 250.36 L 440.50 250.00 L 442.39 250.12 L 444.07 250.72 L 445.60 251.84 L 446.87 253.32 L 447.96 255.24 L 448.85 257.69 L 449.42 260.25 L 449.71 263.19 L 449.71 266.57 L 449.06 275.23 L 448.45 279.97 L 447.59 284.50 L 446.81 287.46 L 445.90 289.93 L 444.88 291.97 L 443.56 293.74 L 442.11 294.79 L 440.50 295.26 L 440.21 295.27 L 438.94 295.03 L 437.79 294.38 L 436.72 293.26 L 435.46 291.10 L 434.34 288.10 L 433.49 284.81 L 432.79 281.08 L 431.80 273.47 L 431.11 266.57 Z" fill="#dea59e" fill-rule="nonzero" group-id="2,27" id="联合_7" node-id="29" stroke="none" target-height="130.90901" target-width="133.53027" target-x="373.0869" target-y="250.002"></path><path d="M 523.00 66.00 L 522.75 69.57 L 522.07 72.93 L 520.96 76.12 L 519.44 79.14 L 517.59 81.89 L 515.38 84.38 L 512.89 86.59 L 510.14 88.44 L 507.12 89.96 L 503.93 91.07 L 500.57 91.75 L 497.00 92.00 L 493.43 91.75 L 490.07 91.07 L 486.88 89.96 L 483.86 88.44 L 481.11 86.59 L 478.62 84.38 L 476.41 81.89 L 474.56 79.14 L 473.04 76.12 L 471.93 72.93 L 471.25 69.57 L 471.00 66.00 L 471.25 62.43 L 471.93 59.07 L 473.04 55.88 L 474.56 52.86 L 476.41 50.11 L 478.62 47.62 L 481.11 45.41 L 483.86 43.56 L 486.88 42.04 L 490.07 40.93 L 493.43 40.25 L 497.00 40.00 L 500.57 40.25 L 503.93 40.93 L 507.12 42.04 L 510.14 43.56 L 512.89 45.41 L 515.38 47.62 L 517.59 50.11 L 519.44 52.86 L 520.96 55.88 L 522.07 59.07 L 522.75 62.43 L 523.00 66.00 Z" fill="#f5b332" fill-rule="nonzero" group-id="2,28" id="椭圆_1" node-id="30" stroke="none" target-height="52" target-width="52" target-x="471" target-y="40"></path><path d="M 467.00 316.00 L 466.75 319.57 L 466.07 322.93 L 464.96 326.12 L 463.44 329.14 L 461.59 331.89 L 459.38 334.38 L 456.89 336.59 L 454.14 338.44 L 451.12 339.96 L 447.93 341.07 L 444.57 341.75 L 441.00 342.00 L 437.43 341.75 L 434.07 341.07 L 430.88 339.96 L 427.86 338.44 L 425.11 336.59 L 422.62 334.38 L 420.41 331.89 L 418.56 329.14 L 417.04 326.12 L 415.93 322.93 L 415.25 319.57 L 415.00 316.00 L 415.25 312.43 L 415.93 309.07 L 417.04 305.88 L 418.56 302.86 L 420.41 300.11 L 422.62 297.62 L 425.11 295.41 L 427.86 293.56 L 430.88 292.04 L 434.07 290.93 L 437.43 290.25 L 441.00 290.00 L 444.57 290.25 L 447.93 290.93 L 451.12 292.04 L 454.14 293.56 L 456.89 295.41 L 459.38 297.62 L 461.59 300.11 L 463.44 302.86 L 464.96 305.88 L 466.07 309.07 L 466.75 312.43 L 467.00 316.00 Z" fill="#f5b332" fill-rule="nonzero" group-id="2,29" id="椭圆_2" node-id="31" stroke="none" target-height="52" target-width="52" target-x="415" target-y="290"></path><path d="M 89.86 698.64 L 91.76 704.49 L 94.17 710.84 L 98.55 720.93 L 101.93 727.99 L 106.34 736.39 L 111.92 746.31 L 117.82 756.00 L 124.98 766.86 L 133.55 778.98 L 142.51 790.75 L 152.98 803.50 L 165.11 817.29 L 174.37 827.19 L 184.61 837.53 L 195.89 848.32 L 208.27 859.58 L 220.63 870.23 L 234.11 881.21 L 248.79 892.53 L 264.73 904.21 L 280.58 915.20 L 297.72 926.41 L 316.21 937.84 L 336.14 949.51 L 351.83 958.24 L 368.44 967.04 L 386.01 975.91 L 404.58 984.84 L 424.19 993.85" fill="none" group-id="3,30" id="路径_107-2" node-id="33" stroke="#368679" stroke-linecap="round" stroke-width="6" target-height="295.206" target-width="334.3213" target-x="89.86377" target-y="698.639"></path><path d="M 185.19 716.49 L 185.06 721.19 L 184.91 733.85 L 185.11 752.31 L 185.45 762.88 L 186.03 774.43 L 186.87 786.14 L 188.03 798.03 L 189.57 809.82 L 191.49 820.98 L 193.07 828.31 L 194.83 835.01 L 196.76 841.11 L 199.10 847.08 L 201.59 852.09 L 204.23 856.27" fill="none" group-id="3,31" id="路径_108-2" node-id="34" stroke="#368679" stroke-linecap="round" stroke-width="6" target-height="139.77496" target-width="19.318848" target-x="184.9082" target-y="716.491"></path><path d="M 37.15 773.26 L 41.27 772.95 L 52.25 772.36 L 68.02 772.02 L 76.94 772.11 L 86.51 772.47 L 96.14 773.15 L 105.65 774.22 L 111.94 775.20 L 117.84 776.40 L 123.36 777.80 L 128.79 779.55 L 133.50 781.54 L 137.59 783.74" fill="none" group-id="3,32" id="路径_109-2" node-id="35" stroke="#368679" stroke-linecap="round" stroke-width="6" target-height="11.718628" target-width="100.43994" target-x="37.149902" target-y="772.02435"></path><path d="M 76.45 877.20 L 81.52 876.96 L 95.56 876.65 L 105.02 876.67 L 116.85 876.91 L 129.37 877.43 L 143.63 878.36 L 158.34 879.71 L 174.18 881.64 L 184.83 883.22 L 195.69 885.13 L 206.77 887.36 L 217.77 889.91 L 228.73 892.85 L 239.64 896.16 L 250.41 899.90 L 260.89 904.07 L 271.08 908.67" fill="none" group-id="3,33" id="路径_110-2" node-id="36" stroke="#368679" stroke-linecap="round" stroke-width="6" target-height="32.02173" target-width="194.62207" target-x="76.453125" target-y="876.6523"></path><path d="M 328.86 943.14 L 327.33 939.06 L 323.34 927.90 L 317.79 911.24 L 314.76 901.53 L 311.56 890.68 L 308.50 879.51 L 305.56 867.80 L 302.92 855.97 L 300.68 844.21 L 298.92 832.51 L 297.81 821.48 L 297.45 814.16 L 297.47 807.42 L 297.86 801.21" fill="none" group-id="3,34" id="路径_111-2" node-id="37" stroke="#368679" stroke-linecap="round" stroke-width="6" target-height="141.92603" target-width="31.413574" target-x="297.44922" target-y="801.211"></path><path d="M 156.81 980.69 L 162.87 979.46 L 179.91 976.55 L 191.51 974.91 L 206.23 973.16 L 221.92 971.69 L 240.10 970.49 L 252.51 969.96 L 265.74 969.69 L 279.84 969.71 L 293.90 970.07 L 308.52 970.84 L 323.72 972.03 L 338.86 973.68 L 354.29 975.88 L 370.03 978.64 L 381.75 981.09 L 393.49 983.91 L 405.26 987.13 L 417.08 990.74" fill="none" group-id="3,35" id="路径_112-2" node-id="38" stroke="#368679" stroke-linecap="round" stroke-width="6" target-height="21.042664" target-width="260.271" target-x="156.80518" target-y="969.69434"></path><path d="M 199.00 715.00 L 198.81 717.01 L 198.31 718.85 L 197.50 720.55 L 196.41 722.10 L 195.10 723.40 L 193.55 724.50 L 191.85 725.31 L 190.01 725.81 L 188.00 726.00 L 185.99 725.81 L 184.15 725.31 L 182.45 724.50 L 180.90 723.40 L 179.59 722.10 L 178.50 720.55 L 177.69 718.85 L 177.19 717.01 L 177.00 715.00 L 177.19 712.99 L 177.69 711.15 L 178.50 709.45 L 179.59 707.90 L 180.90 706.60 L 182.45 705.50 L 184.15 704.69 L 185.99 704.19 L 188.00 704.00 L 190.01 704.19 L 191.85 704.69 L 193.55 705.50 L 195.10 706.60 L 196.41 707.90 L 197.50 709.45 L 198.31 711.15 L 198.81 712.99 L 199.00 715.00 Z" fill="#b9539f" fill-rule="nonzero" group-id="3,36" id="椭圆_3-2" node-id="39" stroke="none" target-height="22" target-width="22" target-x="177" target-y="704"></path><path d="M 100.00 693.00 L 99.81 695.01 L 99.31 696.85 L 98.50 698.55 L 97.40 700.10 L 96.10 701.40 L 94.55 702.50 L 92.85 703.31 L 91.01 703.81 L 89.00 704.00 L 86.99 703.81 L 85.15 703.31 L 83.45 702.50 L 81.90 701.40 L 80.60 700.10 L 79.50 698.55 L 78.69 696.85 L 78.19 695.01 L 78.00 693.00 L 78.19 690.99 L 78.69 689.15 L 79.50 687.45 L 80.60 685.90 L 81.90 684.60 L 83.45 683.50 L 85.15 682.69 L 86.99 682.19 L 89.00 682.00 L 91.01 682.19 L 92.85 682.69 L 94.55 683.50 L 96.10 684.60 L 97.40 685.90 L 98.50 687.45 L 99.31 689.15 L 99.81 690.99 L 100.00 693.00 Z" fill="#b9539f" fill-rule="nonzero" group-id="3,37" id="椭圆_4-2" node-id="40" stroke="none" target-height="22" target-width="22" target-x="78" target-y="682"></path><path d="M 42.00 775.00 L 41.83 776.83 L 41.37 778.50 L 40.63 780.05 L 39.64 781.45 L 38.45 782.64 L 37.05 783.63 L 35.50 784.37 L 33.83 784.83 L 32.00 785.00 L 30.17 784.83 L 28.50 784.37 L 26.95 783.63 L 25.55 782.64 L 24.36 781.45 L 23.37 780.05 L 22.63 778.50 L 22.17 776.83 L 22.00 775.00 L 22.17 773.17 L 22.63 771.50 L 23.37 769.95 L 24.36 768.55 L 25.55 767.36 L 26.95 766.37 L 28.50 765.63 L 30.17 765.17 L 32.00 765.00 L 33.83 765.17 L 35.50 765.63 L 37.05 766.37 L 38.45 767.36 L 39.64 768.55 L 40.63 769.95 L 41.37 771.50 L 41.83 773.17 L 42.00 775.00 Z" fill="#b9539f" fill-rule="nonzero" group-id="3,38" id="椭圆_5-2" node-id="41" stroke="none" target-height="20" target-width="20" target-x="22" target-y="765"></path><path d="M 81.00 881.50 L 80.79 883.78 L 80.22 885.87 L 79.29 887.81 L 78.05 889.56 L 76.56 891.05 L 74.81 892.29 L 72.87 893.22 L 70.78 893.79 L 68.50 894.00 L 66.22 893.79 L 64.13 893.22 L 62.19 892.29 L 60.44 891.05 L 58.95 889.56 L 57.71 887.81 L 56.78 885.87 L 56.21 883.78 L 56.00 881.50 L 56.21 879.22 L 56.78 877.13 L 57.71 875.19 L 58.95 873.44 L 60.44 871.95 L 62.19 870.71 L 64.13 869.78 L 66.22 869.21 L 68.50 869.00 L 70.78 869.21 L 72.87 869.78 L 74.81 870.71 L 76.56 871.95 L 78.05 873.44 L 79.29 875.19 L 80.22 877.13 L 80.79 879.22 L 81.00 881.50 Z" fill="#b9539f" fill-rule="nonzero" group-id="3,39" id="椭圆_6-2" node-id="42" stroke="none" target-height="25" target-width="25" target-x="56" target-y="869"></path><path d="M 161.00 983.00 L 160.80 985.19 L 160.25 987.20 L 159.36 989.06 L 158.17 990.74 L 156.74 992.17 L 155.06 993.36 L 153.20 994.25 L 151.19 994.80 L 149.00 995.00 L 146.81 994.80 L 144.80 994.25 L 142.94 993.36 L 141.26 992.17 L 139.83 990.74 L 138.64 989.06 L 137.75 987.20 L 137.20 985.19 L 137.00 983.00 L 137.20 980.81 L 137.75 978.80 L 138.64 976.94 L 139.83 975.26 L 141.26 973.83 L 142.94 972.64 L 144.80 971.75 L 146.81 971.20 L 149.00 971.00 L 151.19 971.20 L 153.20 971.75 L 155.06 972.64 L 156.74 973.83 L 158.17 975.26 L 159.36 976.94 L 160.25 978.80 L 160.80 980.81 L 161.00 983.00 Z" fill="#b9539f" fill-rule="nonzero" group-id="3,40" id="椭圆_7-2" node-id="43" stroke="none" target-height="24" target-width="24" target-x="137" target-y="971"></path><path d="M 501.79 702.95 L 505.65 700.14 L 515.87 692.55 L 530.39 681.46 L 547.15 668.13 L 555.75 661.01 L 564.10 653.84 L 572.14 646.61 L 579.19 639.86 L 585.60 633.14 L 590.35 627.45 L 597.62 617.60 L 604.32 607.75 L 608.48 601.04 L 612.26 594.25 L 615.69 587.36 L 618.70 580.30 L 621.25 573.05 L 623.32 565.58 L 624.84 557.99 L 625.78 550.05 L 626.12 541.73 L 627.15 544.78 L 628.24 549.30 L 629.16 554.23 L 630.05 559.92 L 631.51 571.61 L 632.59 582.39 L 633.26 590.31 L 633.50 593.39 L 637.06 591.16 L 640.79 588.61 L 646.28 584.55 L 652.11 579.85 L 658.97 573.73 L 663.48 569.33 L 668.13 564.38 L 672.93 558.83 L 677.43 553.07 L 681.78 546.81 L 685.96 540.01 L 689.70 532.97 L 693.01 525.45 L 695.88 517.42 L 697.61 511.30 L 698.96 504.90 L 699.92 498.21 L 700.48 491.20 L 701.62 493.02 L 703.01 496.04 L 704.68 500.71 L 706.80 508.15 L 709.11 518.16 L 711.14 528.97 L 713.06 541.67 L 714.61 554.90 L 715.81 569.33 L 716.51 584.06 L 716.65 599.26 L 716.38 609.45 L 715.79 619.54 L 714.86 629.56 L 713.54 639.52 L 711.82 649.10 L 709.71 658.32 L 707.78 665.19 L 705.59 671.69 L 703.16 677.84 L 700.48 683.66 L 700.81 683.88 L 701.49 683.78 L 702.87 683.04 L 704.94 681.53 L 707.85 679.10 L 714.34 673.08 L 721.27 666.23 L 727.55 659.80 L 732.11 655.02 L 733.88 653.16 L 732.17 656.13 L 727.53 663.87 L 720.70 674.62 L 716.72 680.52 L 712.40 686.62 L 707.90 692.58 L 703.38 698.12 L 698.71 703.24 L 694.36 707.35 L 691.30 709.76 L 688.55 711.46 L 686.08 712.57 L 684.37 713.44 L 682.04 715.23 L 678.89 718.31 L 674.34 723.50 L 668.66 730.74 L 662.84 738.71 L 656.28 748.13 L 649.65 758.03 L 642.65 768.78 L 628.66 790.95 L 615.21 812.94 L 603.19 833.04 L 593.50 849.51 L 587.03 860.66 L 584.67 864.75 L 470.00 906.76 L 460.92 817.63 Z" fill="#74a855" fill-rule="nonzero" group-id="4,41" id="路径_113" node-id="45" stroke="none" target-height="415.55496" target-width="272.958" target-x="460.917" target-y="491.204"></path><path d="M 515.90 777.89 L 518.91 773.68 L 525.79 764.64 L 535.73 752.31 L 541.52 745.49 L 547.94 738.24 L 554.62 731.04 L 561.60 723.97 L 568.78 717.18 L 575.91 711.04 L 576.01 708.67 L 576.54 704.85 L 577.52 700.57 L 579.36 694.56 L 581.83 688.05 L 585.64 679.55 L 590.25 670.49 L 596.66 659.19 L 604.05 647.27 L 613.71 632.85 L 605.36 649.05 L 599.31 661.82 L 594.24 673.64 L 590.90 682.49 L 588.32 690.53 L 586.89 696.07 L 586.00 700.90 L 585.72 703.72 L 597.32 695.64 L 608.65 687.33 L 619.64 678.80 L 629.78 670.43 L 639.33 661.92 L 647.46 653.97 L 652.53 648.51 L 656.70 643.50 L 660.07 638.93 L 664.95 631.52 L 670.44 622.70 L 675.87 613.42 L 681.35 603.35 L 686.50 593.00 L 691.17 582.53 L 693.98 575.42 L 696.35 568.55 L 698.30 561.90 L 697.35 567.00 L 695.34 574.20 L 692.73 581.85 L 689.25 590.82 L 685.31 600.00 L 680.76 609.73 L 675.85 619.41 L 670.62 628.88 L 665.08 638.03 L 659.55 646.24 L 655.64 651.47 L 651.89 655.95 L 648.31 659.75 L 641.75 666.10 L 635.72 671.70 L 629.70 677.04 L 623.81 682.03 L 617.82 686.89 L 611.52 691.80 L 597.77 702.05 L 581.46 713.84 L 574.03 719.59 L 566.45 726.23 L 559.11 733.31 L 552.00 740.69 L 545.19 748.23 L 538.99 755.44 L 543.03 754.77 L 549.64 753.43 L 556.98 751.66 L 566.31 748.99 L 576.10 745.71 L 587.32 741.32 L 594.83 737.99 L 602.72 734.10 L 611.01 729.59 L 619.08 724.74 L 627.30 719.22 L 635.70 713.00 L 643.75 706.36 L 651.75 698.95 L 659.71 690.73 L 653.30 698.67 L 646.62 705.97 L 639.67 712.67 L 632.36 718.97 L 624.97 724.71 L 617.50 729.91 L 609.80 734.77 L 602.24 739.12 L 594.83 742.99 L 583.63 748.22 L 573.29 752.43 L 563.20 756.04 L 554.53 758.76 L 546.37 761.00 L 540.19 762.49 L 531.89 764.15 L 524.79 773.40 L 519.89 780.20 L 517.64 783.71 L 517.10 784.52 L 516.80 784.68 L 516.49 784.45 L 516.20 783.62 L 515.94 781.28 L 515.89 778.95 L 515.90 777.89 Z" fill="#106757" fill-rule="nonzero" group-id="4,42" id="联合_8" node-id="46" stroke="none" target-height="222.77698" target-width="182.4126" target-x="515.88525" target-y="561.89905"></path><path d="M 278.68 530.94 L 277.92 526.23 L 275.89 513.46 L 272.96 494.63 L 269.49 471.75 L 265.83 446.85 L 262.37 421.93 L 259.46 399.00 L 257.46 380.08 L 256.90 372.32 L 256.75 367.19 L 256.93 363.94 L 257.29 362.67 L 257.68 362.33 L 258.31 362.56 L 259.97 363.73 L 263.57 366.80 L 268.92 371.77 L 276.73 379.34 L 295.52 398.15 L 318.28 421.45 L 343.35 447.45 L 369.10 474.35 L 393.87 500.38 L 416.01 523.73 L 433.86 542.63 L 445.79 555.28 L 450.13 559.89 L 449.64 556.80 L 448.76 553.38 L 446.77 547.67 L 445.09 543.68 L 442.69 538.75 L 439.40 532.72 L 435.86 526.88 L 431.26 520.07 L 425.45 512.17 L 419.34 504.54 L 411.84 495.93 L 402.79 486.24 L 393.43 476.89 L 382.33 466.55 L 369.33 455.14 L 356.02 444.14 L 340.62 432.15 L 322.96 419.10 L 332.54 423.44 L 348.50 430.75 L 357.99 435.38 L 368.73 440.96 L 379.64 447.05 L 391.08 454.00 L 398.62 458.95 L 406.07 464.22 L 413.43 469.83 L 420.55 475.73 L 427.29 481.90 L 433.66 488.36 L 438.78 494.21 L 444.23 501.08 L 450.01 509.09 L 455.46 517.28 L 461.05 526.34 L 466.80 536.32 L 472.24 546.43 L 477.66 557.21 L 483.07 568.68 L 488.17 580.27 L 493.11 592.31 L 497.87 604.81 L 502.31 617.43 L 506.43 630.28 L 510.25 643.36 L 513.68 656.55 L 516.68 669.74 L 519.25 682.96 L 521.35 696.25 L 522.91 709.35 L 523.92 722.25 L 524.96 745.12 L 525.49 766.54 L 525.54 786.58 L 525.16 805.31 L 524.33 824.54 L 523.14 842.32 L 521.64 858.73 L 519.84 873.85 L 517.57 889.42 L 515.11 903.52 L 512.49 916.28 L 509.73 927.76 L 507.07 937.00 L 504.06 945.63 L 500.72 953.70 L 496.95 961.60 L 493.04 968.89 L 488.98 975.61 L 484.60 982.16 L 480.28 988.08 L 476.01 993.41 L 469.36 1000.92 L 463.32 1007.01 L 457.31 1012.40 L 452.39 1016.33 L 442.02 1010.86 L 431.29 1004.73 L 420.18 997.91 L 409.37 990.68 L 398.33 982.57 L 387.07 973.53 L 378.97 966.48 L 370.82 958.80 L 362.61 950.46 L 354.33 941.44 L 346.55 932.27 L 338.78 922.32 L 331.02 911.54 L 323.27 899.90 L 316.11 888.20 L 309.03 875.55 L 302.04 861.88 L 295.14 847.15 L 289.84 834.75 L 284.97 822.44 L 280.52 810.23 L 276.47 798.10 L 271.53 781.73 L 267.21 765.68 L 263.49 749.95 L 260.23 734.10 L 257.46 718.75 L 255.19 703.87 L 253.26 688.93 L 251.71 674.67 L 250.52 661.07 L 249.22 640.93 L 248.47 622.71 L 248.11 605.18 L 248.02 589.98 L 248.20 568.11 L 248.70 548.13 L 249.51 528.87 L 250.50 511.92 L 251.75 495.85 L 253.05 482.52 L 254.56 470.23 L 255.97 461.11 L 256.36 464.58 L 257.41 469.63 L 258.83 475.05 L 260.72 481.41 L 265.15 494.79 L 269.92 508.10 L 274.28 519.68 L 277.45 527.85 L 278.68 530.94 Z" fill="#97c676" fill-rule="nonzero" group-id="5,43" id="路径_117" node-id="48" stroke="none" target-height="653.994" target-width="277.5249" target-x="248.02002" target-y="362.331"></path><path d="M 436.76 948.22 L 429.24 942.63 L 423.85 938.28 L 416.79 932.23 L 409.39 925.46 L 400.76 916.98 L 397.65 916.71 L 392.56 915.95 L 386.96 914.76 L 379.87 912.72 L 375.09 911.03 L 369.87 908.82 L 364.18 906.04 L 358.70 902.94 L 352.96 899.16 L 346.96 894.65 L 341.29 889.75 L 335.54 883.99 L 329.70 877.29 L 325.68 872.08 L 321.70 866.28 L 317.77 859.84 L 313.88 852.71 L 310.44 845.60 L 307.14 837.76 L 303.98 829.13 L 300.98 819.65 L 305.26 829.07 L 309.53 837.58 L 313.79 845.23 L 318.04 852.11 L 322.72 859.00 L 327.30 865.15 L 331.78 870.62 L 336.15 875.45 L 342.43 881.67 L 348.36 886.88 L 353.96 891.17 L 359.85 895.13 L 365.22 898.31 L 370.11 900.79 L 377.44 903.89 L 383.25 905.80 L 388.59 907.12 L 392.00 907.70 L 383.70 898.22 L 375.78 888.48 L 368.24 878.48 L 361.08 868.21 L 354.29 857.68 L 347.90 846.93 L 341.91 835.95 L 336.31 824.74 L 331.13 813.34 L 326.37 801.75 L 322.03 789.98 L 318.10 778.00 L 324.15 792.29 L 330.69 806.34 L 337.70 820.16 L 345.20 833.72 L 353.15 847.02 L 361.58 860.04 L 362.82 857.93 L 364.81 854.03 L 366.81 849.47 L 369.09 843.22 L 371.10 836.34 L 372.94 827.81 L 373.85 821.90 L 374.49 815.32 L 374.85 807.98 L 374.81 800.67 L 374.31 792.67 L 373.30 783.93 L 371.83 775.28 L 369.69 765.94 L 366.81 755.83 L 370.14 763.03 L 372.91 769.98 L 375.15 776.71 L 376.89 783.24 L 378.66 792.15 L 379.75 800.57 L 380.21 808.53 L 380.15 816.53 L 379.68 823.90 L 378.83 830.69 L 377.63 837.46 L 376.29 843.44 L 374.83 848.68 L 372.37 856.12 L 370.26 861.48 L 367.17 868.05 L 375.07 878.63 L 382.50 887.92 L 389.48 896.03 L 396.76 903.93 L 403.35 910.65 L 409.30 916.31 L 418.16 924.11 L 425.04 929.64 L 431.32 934.25 L 435.11 936.79 L 429.91 903.27 L 424.24 869.86 L 418.09 836.55 L 411.45 803.34 L 404.34 770.22 L 396.74 737.19 L 388.67 704.25 L 385.16 704.00 L 381.21 703.41 L 376.76 702.43 L 372.41 701.16 L 367.65 699.39 L 362.45 697.06 L 359.07 697.33 L 353.82 697.49 L 348.05 697.36 L 340.91 696.76 L 336.05 696.07 L 330.81 695.04 L 325.16 693.62 L 319.63 691.87 L 313.92 689.63 L 308.00 686.84 L 302.31 683.64 L 296.60 679.77 L 290.84 675.19 L 286.83 671.50 L 282.87 667.33 L 278.97 662.65 L 275.13 657.44 L 271.71 652.12 L 268.42 646.20 L 265.28 639.62 L 262.29 632.34 L 265.60 638.77 L 269.11 644.70 L 272.82 650.17 L 276.73 655.20 L 280.99 660.04 L 285.35 664.46 L 289.82 668.47 L 294.41 672.09 L 300.86 676.51 L 307.32 680.27 L 313.82 683.39 L 320.53 686.03 L 327.06 688.06 L 333.44 689.52 L 339.91 690.49 L 346.01 690.93 L 351.76 690.86 L 347.09 687.58 L 342.17 683.68 L 336.98 679.10 L 331.49 673.78 L 326.46 668.41 L 321.22 662.23 L 315.75 655.17 L 310.04 647.16 L 309.18 646.83 L 308.50 646.23 L 308.09 645.38 L 307.95 644.03 L 302.25 634.99 L 296.37 624.73 L 290.28 613.15 L 284.63 601.40 L 278.84 588.25 L 272.93 573.59 L 267.46 558.81 L 261.94 542.43 L 256.36 524.35 L 262.15 541.49 L 267.90 557.01 L 273.60 571.03 L 279.77 584.89 L 285.81 597.32 L 291.71 608.44 L 298.04 619.36 L 304.15 629.05 L 310.04 637.61 L 311.80 633.33 L 313.55 627.48 L 314.45 623.34 L 315.25 618.18 L 315.91 611.86 L 316.29 605.52 L 316.44 597.79 L 316.31 588.48 L 315.58 573.87 L 313.95 555.06 L 311.60 534.73 L 308.03 509.35 L 312.23 521.72 L 315.59 533.39 L 318.18 544.41 L 320.26 555.57 L 321.74 565.94 L 322.66 575.57 L 323.16 585.27 L 323.28 594.08 L 323.05 602.05 L 322.19 613.64 L 320.98 623.03 L 319.44 631.62 L 318.05 637.74 L 315.85 645.38 L 322.74 653.78 L 329.23 660.98 L 335.32 667.07 L 341.75 672.87 L 347.65 677.70 L 353.06 681.66 L 358.71 685.34 L 363.72 688.28 L 368.16 690.55 L 374.73 693.41 L 379.70 695.14 L 384.18 696.35 L 386.78 696.85 L 378.09 664.18 L 368.50 630.40 L 361.75 607.85 L 354.59 585.01 L 347.01 561.87 L 339.12 538.85 L 330.81 515.72 L 322.08 492.49 L 312.98 469.40 L 303.45 446.40 L 293.48 423.47 L 302.81 441.90 L 311.91 461.15 L 320.80 481.25 L 329.22 501.54 L 337.39 522.37 L 345.31 543.75 L 352.85 565.26 L 360.11 587.02 L 367.08 609.03 L 367.69 603.13 L 368.27 594.60 L 368.55 585.23 L 368.44 573.52 L 367.81 561.09 L 366.43 546.59 L 365.12 536.75 L 363.34 526.11 L 361.05 514.64 L 358.38 503.29 L 355.09 491.25 L 351.12 478.49 L 355.59 487.95 L 359.49 497.07 L 362.84 505.86 L 365.68 514.35 L 369.00 525.96 L 371.56 536.84 L 373.43 547.05 L 374.83 557.37 L 375.72 566.81 L 376.14 575.44 L 376.21 584.12 L 376.01 591.75 L 375.56 598.42 L 374.53 607.96 L 373.44 614.86 L 372.24 620.78 L 371.54 623.63 L 379.54 651.05 L 387.06 678.32 L 394.19 705.55 L 400.83 732.21 L 407.10 758.68 L 412.86 784.20 L 418.29 809.37 L 423.21 833.19 L 425.97 828.80 L 430.52 820.90 L 435.33 811.72 L 441.29 799.12 L 445.13 790.21 L 449.19 779.87 L 453.49 767.97 L 457.40 755.97 L 461.27 742.55 L 465.08 727.58 L 463.58 726.73 L 460.85 724.70 L 458.00 721.97 L 454.31 717.48 L 452.03 714.11 L 449.57 709.75 L 446.91 704.22 L 444.64 698.57 L 442.35 691.63 L 440.09 683.20 L 438.29 674.71 L 436.67 664.62 L 435.30 652.72 L 434.43 640.81 L 433.98 626.99 L 434.00 611.05 L 435.73 626.43 L 437.54 639.68 L 439.38 651.00 L 441.54 662.27 L 443.66 671.73 L 445.71 679.58 L 448.07 687.37 L 450.28 693.67 L 452.33 698.69 L 454.66 703.62 L 456.72 707.41 L 458.56 710.24 L 461.51 713.99 L 463.73 716.13 L 465.89 717.65 L 467.18 718.26 L 470.47 701.23 L 473.19 684.13 L 475.33 666.95 L 476.91 649.70 L 477.91 632.41 L 478.34 615.08 L 478.82 633.06 L 478.77 649.89 L 478.22 665.63 L 477.19 681.38 L 475.79 696.03 L 474.04 709.63 L 471.87 723.20 L 469.49 735.71 L 466.91 747.20 L 463.98 758.65 L 460.99 769.05 L 457.96 778.48 L 460.82 776.87 L 465.27 773.78 L 468.26 771.36 L 471.77 768.08 L 475.88 763.80 L 479.71 759.32 L 483.93 753.70 L 488.59 746.77 L 492.86 739.64 L 497.39 731.08 L 502.19 720.89 L 499.22 730.52 L 496.09 738.96 L 492.84 746.32 L 489.13 753.51 L 485.46 759.69 L 481.85 764.98 L 477.90 770.06 L 474.19 774.31 L 470.71 777.82 L 465.32 782.55 L 460.89 785.82 L 456.67 788.45 L 453.87 789.92 L 449.42 800.95 L 445.30 810.25 L 441.49 818.00 L 435.61 828.80 L 431.19 836.01 L 427.17 841.92 L 425.42 844.23 L 430.72 871.69 L 435.26 896.42 L 439.41 920.11 L 442.79 940.35 L 448.08 974.12 L 451.20 995.79 L 452.23 1003.44 L 444.11 1007.87 L 443.38 1000.75 L 441.02 980.38 L 436.76 948.22 Z" fill="#216d49" fill-rule="nonzero" group-id="5,44" id="联合_9" node-id="49" stroke="none" target-height="584.3989" target-width="245.8291" target-x="256.3589" target-y="423.468"></path><path d="M 449.57 1007.81 L 450.05 1003.64 L 451.66 992.17 L 454.65 974.94 L 456.68 964.89 L 459.25 953.52 L 462.20 941.87 L 465.73 929.46 L 469.72 916.98 L 474.32 904.30 L 479.27 892.28 L 484.69 880.48 L 490.57 868.88 L 496.87 857.49 L 503.37 846.57 L 510.07 836.09 L 517.10 825.80 L 524.05 816.23 L 530.91 807.36 L 538.06 798.66 L 544.81 790.95 L 551.19 784.13 L 557.93 777.53 L 564.93 771.26 L 572.18 765.32 L 579.69 759.71 L 590.04 752.67 L 600.54 746.18 L 611.20 740.23 L 622.10 734.68 L 632.82 729.65 L 643.37 725.11 L 659.20 718.91 L 673.84 713.77 L 688.06 709.23 L 700.29 705.63 L 720.36 700.12 L 725.64 698.35 L 731.00 695.95 L 736.48 692.87 L 741.71 689.37 L 746.93 685.38 L 752.15 680.85 L 757.13 676.05 L 761.97 670.93 L 766.68 665.46 L 771.16 659.79 L 775.38 653.99 L 779.35 648.06 L 783.09 641.97 L 786.45 635.97 L 789.46 630.04 L 792.20 623.98 L 794.47 618.24 L 796.30 612.80 L 796.52 617.18 L 796.29 621.89 L 795.56 626.96 L 794.48 631.98 L 793.09 637.09 L 791.37 642.30 L 788.42 649.93 L 785.21 657.14 L 781.77 664.01 L 778.56 669.81 L 775.35 675.06 L 772.91 678.63 L 770.61 681.40 L 769.75 681.95 L 769.73 681.78 L 772.22 680.39 L 781.23 676.04 L 794.93 669.40 L 811.50 660.93 L 820.24 656.19 L 829.08 651.14 L 837.73 645.86 L 845.82 640.51 L 841.20 646.94 L 836.50 654.08 L 831.72 661.97 L 824.96 674.13 L 818.37 687.13 L 812.19 700.40 L 806.51 713.67 L 801.31 726.91 L 796.89 739.28 L 793.06 751.33 L 790.26 761.65 L 788.75 768.44 L 787.81 773.99 L 787.35 778.46 L 790.20 776.83 L 793.18 774.40 L 796.33 771.01 L 799.66 766.47 L 802.40 761.94 L 805.29 756.32 L 808.32 749.45 L 811.48 741.14 L 815.07 730.23 L 818.82 716.91 L 822.73 700.86 L 822.68 708.91 L 822.25 716.90 L 821.46 724.86 L 820.30 732.78 L 818.27 743.26 L 815.81 753.47 L 812.92 763.42 L 809.65 773.26 L 806.19 782.60 L 802.55 791.46 L 796.72 804.34 L 791.11 815.58 L 785.41 826.08 L 780.53 834.45 L 775.91 841.92 L 772.77 846.74 L 769.75 851.13 L 774.46 848.67 L 779.65 846.12 L 787.80 842.35 L 796.96 838.39 L 808.62 833.74 L 821.13 829.17 L 835.73 824.40 L 845.75 821.46 L 856.48 818.63 L 867.96 815.93 L 859.67 820.42 L 846.65 827.31 L 830.46 835.89 L 812.67 845.46 L 794.83 855.31 L 778.52 864.74 L 771.21 869.21 L 765.29 873.04 L 760.03 876.76 L 756.69 879.51 L 751.67 883.76 L 745.11 888.65 L 730.05 898.90 L 713.48 910.04 L 705.19 915.92 L 697.34 921.88 L 692.28 926.03 L 687.71 930.14 L 683.60 934.20 L 681.19 936.37 L 677.74 938.91 L 672.96 941.86 L 665.32 945.96 L 655.66 950.59 L 645.34 955.12 L 633.72 959.89 L 621.74 964.56 L 609.20 969.25 L 584.16 978.16 L 560.63 986.10 L 540.67 992.57 L 526.34 997.05 L 519.67 999.04 L 514.20 1000.47 L 504.53 1003.01 L 492.42 1006.15 L 479.65 1009.41 L 467.98 1012.31 L 459.20 1014.34 L 456.07 1014.94 L 455.07 1015.03 L 453.14 1014.64 L 451.79 1014.11 L 450.87 1013.50 L 449.82 1012.29 L 449.35 1011.06 L 449.22 1009.80 L 449.31 1008.80 L 449.57 1007.81 Z" fill="#b7d99d" fill-rule="nonzero" group-id="6,45" id="路径_129" node-id="51" stroke="none" target-height="402.232" target-width="418.74707" target-x="449.21777" target-y="612.799"></path><path d="M 449.39 1007.77 L 456.04 1003.45 L 474.56 991.03 L 487.05 982.40 L 502.83 971.25 L 502.39 967.59 L 501.85 960.69 L 501.60 952.82 L 501.80 942.30 L 502.25 935.01 L 503.10 926.82 L 504.41 917.66 L 506.11 908.60 L 508.43 898.86 L 511.44 888.38 L 514.01 880.71 L 517.04 872.78 L 520.58 864.56 L 524.64 856.05 L 528.98 847.87 L 533.92 839.52 L 539.50 830.99 L 545.76 822.26 L 540.67 830.27 L 536.10 838.27 L 532.04 846.27 L 528.32 854.45 L 525.05 862.51 L 522.20 870.45 L 519.65 878.51 L 517.47 886.32 L 515.63 893.89 L 524.04 889.87 L 530.02 886.75 L 537.50 882.54 L 545.24 877.80 L 553.68 872.13 L 559.24 868.05 L 564.75 863.64 L 570.23 858.88 L 575.45 853.86 L 580.31 848.59 L 584.82 843.04 L 587.93 838.67 L 590.67 834.18 L 593.06 829.58 L 595.11 824.85 L 592.76 831.86 L 589.89 838.49 L 586.53 844.77 L 582.70 850.80 L 578.56 856.47 L 574.10 861.80 L 569.35 866.88 L 564.49 871.59 L 559.53 875.95 L 551.86 882.03 L 544.49 887.23 L 537.15 891.92 L 530.69 895.67 L 524.52 898.96 L 519.81 901.28 L 513.55 904.08 L 511.86 914.36 L 510.61 924.67 L 509.77 935.03 L 509.37 945.41 L 509.39 955.80 L 509.84 966.21 L 532.79 949.36 L 555.42 932.15 L 577.75 914.56 L 599.78 896.58 L 621.51 878.23 L 642.94 859.50 L 642.77 857.05 L 642.68 851.93 L 642.87 846.01 L 643.60 837.91 L 644.38 832.29 L 645.57 825.92 L 647.23 818.72 L 649.22 811.64 L 651.81 803.96 L 655.08 795.64 L 658.77 787.54 L 663.28 779.00 L 668.68 769.97 L 673.00 763.50 L 677.89 756.85 L 683.40 750.02 L 689.55 742.99 L 683.97 750.28 L 678.80 757.82 L 674.03 765.62 L 669.67 773.67 L 665.74 781.92 L 662.23 790.40 L 669.68 788.91 L 674.75 787.59 L 681.04 785.62 L 687.56 783.17 L 694.77 779.91 L 699.53 777.42 L 704.38 774.53 L 709.31 771.21 L 714.03 767.59 L 718.63 763.50 L 723.13 758.90 L 727.25 753.98 L 731.10 748.49 L 734.67 742.39 L 732.55 747.45 L 730.14 752.18 L 727.46 756.61 L 724.49 760.77 L 720.10 766.01 L 715.44 770.78 L 710.51 775.11 L 705.29 779.12 L 700.07 782.69 L 694.84 785.84 L 686.88 790.06 L 679.59 793.37 L 672.53 796.14 L 666.86 798.09 L 658.75 800.41 L 656.03 810.00 L 654.10 818.57 L 652.67 826.84 L 651.80 833.81 L 651.28 840.33 L 651.10 845.26 L 651.22 852.03 L 664.80 839.51 L 678.35 826.63 L 691.87 813.39 L 705.16 799.93 L 718.21 786.21 L 731.01 772.25 L 743.51 758.02 L 755.54 743.65 L 767.13 729.14 L 778.32 714.33 L 788.85 699.49 L 798.74 684.61 L 791.57 696.43 L 783.86 708.33 L 775.60 720.33 L 766.75 732.44 L 754.58 748.17 L 741.71 763.88 L 728.14 779.56 L 714.20 794.93 L 699.88 810.08 L 685.19 825.01 L 670.23 839.68 L 655.23 853.95 L 640.19 867.81 L 617.45 888.07 L 595.42 906.97 L 601.04 907.05 L 610.35 906.85 L 620.81 906.25 L 634.46 904.92 L 643.89 903.69 L 654.49 901.97 L 666.36 899.70 L 666.91 897.83 L 668.25 894.38 L 670.10 890.52 L 673.18 885.24 L 677.01 879.72 L 682.52 872.92 L 686.61 868.46 L 691.61 863.53 L 697.64 858.07 L 703.88 852.91 L 711.26 847.33 L 719.90 841.32 L 728.74 835.66 L 738.95 829.66 L 750.67 823.30 L 738.71 831.56 L 728.54 839.03 L 719.98 845.77 L 711.65 852.81 L 704.78 859.06 L 699.20 864.58 L 693.84 870.35 L 689.63 875.31 L 686.39 879.56 L 682.16 885.90 L 679.62 890.54 L 677.79 894.77 L 676.97 897.34 L 689.28 894.18 L 701.47 890.67 L 713.53 886.79 L 725.48 882.55 L 737.30 877.96 L 748.96 873.01 L 760.48 867.71 L 771.86 862.06 L 760.44 868.93 L 749.01 875.15 L 737.55 880.76 L 725.88 885.92 L 714.42 890.52 L 703.14 894.58 L 691.73 898.28 L 680.75 901.50 L 670.19 904.26 L 654.48 907.83 L 640.27 910.53 L 626.58 912.67 L 614.93 914.14 L 604.04 915.21 L 595.75 915.82 L 584.28 916.30 L 563.12 933.59 L 543.61 949.09 L 524.67 963.75 L 508.16 976.22 L 492.53 987.78 L 480.13 996.77 L 461.69 1009.78 L 455.06 1014.32 Z" fill="#69a148" fill-rule="nonzero" group-id="6,46" id="联合_10" node-id="52" stroke="none" target-height="329.711" target-width="349.35596" target-x="449.38623" target-y="684.612"></path></g></svg>